<svg xmlns="http://www.w3.org/2000/svg" xmlns:xlink="http://www.w3.org/1999/xlink" width="4000" zoomAndPan="magnify" viewBox="0 0 3000 1499.999933" height="2000" preserveAspectRatio="xMidYMid meet" version="1.0"><rect x="-300" width="3600" fill="#ffffff" y="-149.999993" height="1799.99992" fill-opacity="1"/><rect x="-300" width="3600" fill="#ffffff" y="-149.999993" height="1799.99992" fill-opacity="1"/><path fill="#000000" d="M 2247.808594 663.097656 L 2110.515625 630.964844 L 2227.359375 552.09375 L 2052.824219 549.902344 L 2056.476562 570.351562 L 2166.746094 569.621094 L 2166.746094 570.351562 L 2065.96875 638.996094 L 2185.003906 667.476562 L 2185.003906 668.207031 L 2082.035156 706.914062 L 2085.6875 727.359375 Z M 2161.636719 450.585938 L 2178.433594 441.820312 L 2137.535156 363.679688 L 1991.480469 439.628906 L 2032.375 517.769531 L 2049.171875 509.007812 L 2017.769531 449.125 L 2072.542969 420.640625 L 2103.214844 479.066406 L 2120.007812 470.300781 L 2090.066406 411.878906 L 2130.964844 390.699219 Z M 2027.992188 345.421875 C 2068.160156 308.179688 2059.394531 259.980469 2025.804688 222.734375 L 2003.164062 197.90625 L 1881.9375 308.910156 L 1904.578125 333.738281 C 1938.898438 371.714844 1987.097656 383.398438 2027.992188 345.421875 Z M 2013.386719 330.816406 C 1978.335938 362.949219 1942.550781 346.882812 1914.070312 316.210938 L 1908.957031 311.101562 L 2002.433594 224.925781 L 2007.546875 230.039062 C 2036.027344 261.441406 2049.171875 298.683594 2013.386719 330.816406 Z M 1852.726562 286.269531 L 1873.90625 99.320312 L 1718.355469 205.941406 L 1737.339844 217.625 L 1774.585938 192.0625 L 1839.582031 230.769531 L 1834.46875 276.046875 Z M 1850.535156 137.292969 L 1841.042969 209.589844 L 1790.652344 179.648438 Z M 1647.515625 96.398438 L 1737.339844 43.085938 L 1711.050781 36.515625 L 1626.339844 88.363281 L 1643.867188 18.988281 L 1624.148438 13.875 L 1583.984375 173.078125 L 1603.699219 178.1875 L 1620.496094 111.734375 L 1630.71875 105.890625 L 1672.347656 194.984375 L 1699.367188 201.558594 Z M 1523.367188 169.425781 L 1545.277344 168.695312 L 1462.023438 0 L 1388.996094 173.808594 L 1410.90625 173.078125 L 1428.433594 131.449219 L 1503.652344 129.261719 Z M 1494.15625 110.273438 L 1435.734375 111.734375 L 1462.753906 44.546875 Z M 1334.957031 111.003906 L 1332.765625 105.160156 L 1271.421875 127.800781 L 1277.992188 145.324219 L 1318.160156 130.71875 C 1326.921875 156.28125 1308.664062 186.222656 1284.566406 194.984375 C 1250.972656 207.398438 1213 186.953125 1201.3125 154.089844 C 1188.167969 119.765625 1204.964844 81.792969 1239.289062 68.648438 C 1258.277344 61.34375 1280.183594 64.996094 1296.980469 75.949219 L 1305.746094 58.421875 C 1283.835938 45.277344 1256.085938 43.085938 1231.988281 51.851562 C 1187.4375 68.648438 1165.53125 117.574219 1182.328125 162.121094 C 1198.394531 204.480469 1246.59375 229.308594 1289.679688 213.242188 C 1332.765625 196.445312 1351.023438 153.359375 1334.957031 111.003906 Z M 1103.457031 232.230469 C 1120.984375 215.433594 1121.714844 190.605469 1107.109375 171.617188 C 1097.613281 159.203125 1082.277344 151.167969 1066.210938 153.359375 C 1051.605469 155.550781 1038.460938 164.3125 1026.777344 173.808594 L 1007.058594 188.414062 L 1106.378906 319.132812 L 1122.445312 306.71875 L 1080.816406 251.21875 L 1087.390625 246.105469 L 1167.722656 272.394531 L 1187.4375 257.058594 Z M 1075.707031 234.421875 L 1070.59375 238.070312 L 1034.808594 190.605469 L 1039.191406 186.953125 C 1055.257812 174.539062 1077.167969 162.851562 1092.503906 183.300781 C 1107.839844 205.210938 1092.503906 222.003906 1075.707031 234.421875 Z M 951.558594 345.421875 L 915.773438 316.210938 L 958.859375 263.632812 L 944.253906 251.949219 L 888.753906 320.59375 L 1015.824219 424.292969 L 1071.324219 355.648438 L 1056.71875 343.964844 L 1013.632812 396.542969 L 965.433594 357.109375 L 1007.058594 305.988281 L 992.453125 294.304688 Z M 898.246094 456.425781 C 898.246094 444.011719 888.753906 432.328125 877.800781 427.214844 C 844.207031 411.148438 824.488281 434.519531 811.34375 462.269531 L 802.582031 480.527344 L 950.828125 551.363281 L 967.625 517.039062 C 980.039062 490.75 980.039062 460.078125 950.828125 445.472656 C 933.300781 436.707031 909.933594 440.359375 898.246094 456.425781 Z M 879.261719 488.558594 L 877.070312 492.941406 L 828.140625 469.570312 L 830.332031 464.460938 C 838.363281 446.933594 848.589844 434.519531 869.765625 444.742188 C 890.945312 454.964844 887.292969 471.03125 879.261719 488.558594 Z M 896.785156 488.558594 C 904.820312 471.761719 919.425781 452.773438 939.875 463 C 961.050781 473.222656 957.398438 493.671875 949.367188 510.46875 L 942.792969 524.34375 L 891.675781 500.242188 Z M 858.8125 683.542969 L 755.113281 681.351562 L 754.382812 701.800781 L 851.507812 703.992188 C 878.53125 704.722656 902.628906 712.753906 902.628906 744.886719 C 901.898438 776.289062 877.070312 784.324219 850.046875 783.59375 L 752.921875 781.402344 L 752.191406 801.851562 L 855.890625 804.039062 C 892.40625 804.769531 920.15625 782.863281 920.886719 744.886719 C 922.347656 707.644531 895.324219 684.273438 858.8125 683.542969 Z M 781.402344 876.339844 L 763.144531 880.71875 L 785.785156 976.386719 L 804.039062 972.003906 L 795.277344 934.03125 L 936.953125 900.4375 L 932.570312 880.71875 L 790.894531 914.3125 Z M 1072.054688 1148.734375 L 961.78125 1270.691406 L 977.117188 1284.566406 L 1031.160156 1224.683594 L 1073.515625 1262.65625 L 1085.929688 1248.78125 L 1043.574219 1210.808594 L 1074.246094 1176.484375 L 1118.0625 1215.921875 L 1130.476562 1202.042969 Z M 1159.6875 1227.605469 L 1078.628906 1370.738281 L 1096.152344 1380.964844 L 1130.476562 1320.351562 L 1137.78125 1324.730469 L 1145.8125 1408.714844 L 1167.722656 1421.128906 L 1158.226562 1333.496094 C 1180.136719 1342.988281 1203.503906 1333.496094 1215.191406 1313.046875 C 1223.222656 1299.171875 1223.953125 1282.375 1215.921875 1268.5 C 1207.886719 1255.355469 1194.742188 1247.320312 1182.328125 1240.75 Z M 1139.242188 1305.015625 L 1168.453125 1253.164062 L 1172.832031 1256.085938 C 1190.359375 1266.308594 1210.078125 1281.644531 1196.933594 1303.554688 C 1183.789062 1326.191406 1162.609375 1318.160156 1144.351562 1307.933594 Z M 1275.074219 1291.140625 L 1226.875 1448.148438 L 1311.585938 1473.710938 L 1316.699219 1455.453125 L 1251.703125 1435.734375 L 1269.960938 1376.582031 L 1332.765625 1395.570312 L 1337.878906 1377.3125 L 1275.074219 1358.324219 L 1288.21875 1314.507812 L 1353.214844 1334.226562 L 1358.324219 1315.96875 Z M 1403.601562 1325.460938 L 1383.886719 1488.316406 L 1404.332031 1490.507812 L 1424.050781 1327.652344 Z M 1494.886719 1334.957031 L 1475.171875 1335.6875 L 1481.011719 1500 L 1518.988281 1498.539062 C 1548.199219 1497.808594 1575.21875 1483.203125 1574.488281 1450.339844 C 1573.757812 1431.351562 1559.882812 1412.367188 1540.164062 1410.175781 L 1540.164062 1409.445312 C 1551.121094 1403.601562 1556.960938 1389.726562 1556.960938 1377.3125 C 1555.5 1340.796875 1526.289062 1333.496094 1494.886719 1334.957031 Z M 1498.539062 1423.320312 L 1510.953125 1422.589844 C 1529.210938 1421.859375 1553.308594 1425.511719 1554.039062 1448.878906 C 1554.769531 1472.25 1535.054688 1478.820312 1516.066406 1479.550781 L 1500.730469 1480.28125 Z M 1496.347656 1353.214844 L 1502.191406 1353.214844 C 1521.179688 1352.484375 1537.246094 1356.132812 1537.976562 1378.773438 C 1538.703125 1402.140625 1523.367188 1406.523438 1503.652344 1407.253906 L 1498.539062 1407.253906 Z M 1687.683594 1302.09375 L 1602.96875 1326.921875 L 1648.976562 1484.664062 L 1733.691406 1459.835938 L 1728.578125 1441.578125 L 1663.582031 1460.566406 L 1646.054688 1400.679688 L 1709.589844 1382.425781 L 1704.480469 1364.167969 L 1640.945312 1382.425781 L 1627.800781 1338.609375 L 1692.792969 1319.621094 Z M 1724.195312 1290.410156 L 1803.066406 1434.273438 L 1821.324219 1424.050781 L 1787.730469 1363.4375 L 1795.035156 1359.054688 L 1870.984375 1396.300781 L 1892.890625 1384.613281 L 1813.292969 1346.640625 C 1833.007812 1332.765625 1837.390625 1307.933594 1825.707031 1287.488281 C 1818.402344 1273.613281 1803.796875 1264.117188 1787.730469 1263.386719 C 1772.394531 1263.386719 1758.519531 1270.691406 1746.105469 1277.261719 Z M 1751.21875 1296.980469 L 1756.328125 1294.058594 C 1773.855469 1284.566406 1797.226562 1275.804688 1809.640625 1298.441406 C 1822.054688 1321.082031 1804.527344 1335.6875 1786.269531 1345.910156 L 1780.429688 1348.832031 Z M 1884.859375 1297.710938 C 1915.53125 1331.304688 1969.570312 1335.6875 2003.894531 1304.285156 C 2037.488281 1272.882812 2037.488281 1226.144531 2007.546875 1193.28125 L 2003.164062 1188.167969 L 1954.964844 1231.984375 L 1967.378906 1245.863281 L 1998.78125 1217.378906 C 2016.308594 1237.828125 2011.199219 1272.882812 1992.210938 1289.679688 C 1965.921875 1313.777344 1922.832031 1308.664062 1899.464844 1283.105469 C 1874.636719 1256.085938 1875.363281 1214.460938 1903.117188 1189.628906 C 1917.722656 1175.753906 1939.628906 1170.640625 1959.347656 1174.292969 L 1960.808594 1154.578125 C 1935.25 1150.195312 1908.957031 1158.957031 1889.96875 1176.484375 C 1854.917969 1208.617188 1853.457031 1262.65625 1884.859375 1297.710938 Z M 2074.730469 844.9375 L 2052.824219 930.378906 L 2071.082031 934.761719 L 2087.878906 869.035156 L 2147.761719 884.371094 L 2131.695312 947.90625 L 2149.953125 952.289062 L 2166.015625 888.753906 L 2210.566406 899.707031 L 2193.769531 965.433594 L 2212.023438 969.816406 L 2233.933594 884.371094 Z M 2079.113281 789.433594 L 2242.695312 801.121094 L 2244.15625 780.671875 L 2080.574219 768.988281 Z M 896.785156 1095.421875 C 896.785156 1106.378906 906.28125 1115.871094 917.234375 1115.871094 C 928.1875 1115.871094 937.683594 1106.378906 937.683594 1095.421875 C 937.683594 1084.46875 928.1875 1074.976562 917.234375 1074.976562 C 906.28125 1074.976562 896.785156 1084.46875 896.785156 1095.421875 Z M 2058.664062 1095.421875 C 2058.664062 1106.378906 2068.160156 1115.871094 2079.113281 1115.871094 C 2090.066406 1115.871094 2099.5625 1106.378906 2099.5625 1095.421875 C 2099.5625 1084.46875 2090.066406 1074.976562 2079.113281 1074.976562 C 2068.160156 1074.976562 2058.664062 1084.46875 2058.664062 1095.421875 Z M 2058.664062 1095.421875 " fill-opacity="1" fill-rule="nonzero"/><path fill="#000000" d="M 1548.929688 749.269531 L 1713.972656 578.382812 L 1754.867188 619.28125 L 1923.5625 703.261719 L 1839.582031 534.566406 L 1797.226562 492.210938 L 1808.910156 479.796875 L 1769.472656 440.359375 L 1757.058594 452.042969 L 1658.472656 354.1875 L 1573.757812 438.898438 L 1670.886719 536.027344 L 1516.066406 685.734375 L 1516.066406 470.300781 L 1519.71875 470.300781 C 1535.785156 470.300781 1548.199219 457.15625 1548.199219 441.820312 L 1545.277344 361.488281 L 1513.144531 361.488281 L 1516.066406 433.058594 C 1516.066406 435.980469 1513.875 438.167969 1510.953125 438.167969 L 1488.316406 438.167969 C 1485.394531 438.167969 1483.203125 435.980469 1483.203125 433.058594 L 1486.125 361.488281 L 1453.992188 361.488281 L 1451.070312 441.820312 C 1451.070312 457.886719 1464.214844 470.300781 1479.550781 470.300781 L 1483.203125 470.300781 L 1483.203125 685.734375 L 1313.777344 522.152344 C 1349.5625 490.019531 1390.457031 463 1434.273438 441.820312 L 1353.214844 348.34375 C 1245.132812 407.496094 1156.035156 496.59375 1096.882812 604.671875 L 1189.628906 685.734375 C 1210.808594 641.1875 1237.828125 601.023438 1269.960938 564.507812 L 1448.148438 749.269531 L 1178.675781 1009.25 C 1172.101562 1015.824219 1171.371094 1026.046875 1177.945312 1032.621094 C 1189.628906 1045.765625 1202.042969 1058.179688 1215.191406 1069.863281 C 1221.761719 1075.707031 1232.714844 1075.707031 1238.558594 1069.132812 L 1470.789062 828.140625 L 1467.867188 850.046875 L 1467.867188 856.621094 L 1466.40625 898.976562 L 1466.40625 907.742188 L 1465.675781 933.300781 L 1464.945312 959.589844 L 1464.214844 961.78125 L 1464.214844 968.355469 L 1459.105469 1132.667969 C 1459.105469 1132.667969 1459.105469 1132.667969 1459.105469 1133.398438 L 1459.105469 1134.128906 C 1459.105469 1138.511719 1460.566406 1142.160156 1463.484375 1145.082031 C 1466.40625 1148.003906 1470.058594 1149.464844 1474.441406 1149.464844 L 1521.179688 1149.464844 C 1525.558594 1149.464844 1529.210938 1148.003906 1532.132812 1145.082031 C 1535.054688 1142.160156 1536.515625 1138.511719 1536.515625 1134.128906 L 1531.402344 966.894531 L 1531.402344 960.320312 L 1529.210938 903.359375 L 1529.210938 898.976562 L 1527.75 855.890625 L 1527.75 848.589844 L 1527.019531 844.207031 L 1524.828125 827.410156 L 1757.058594 1067.671875 C 1763.632812 1074.246094 1773.855469 1074.976562 1780.429688 1068.402344 C 1793.574219 1056.71875 1805.988281 1044.304688 1817.671875 1031.160156 C 1823.515625 1024.585938 1823.515625 1013.632812 1816.941406 1007.789062 Z M 1478.820312 457.15625 C 1470.058594 457.15625 1462.023438 449.855469 1462.023438 441.089844 L 1464.945312 372.445312 L 1472.980469 372.445312 L 1470.789062 431.597656 C 1470.789062 441.089844 1478.820312 449.125 1488.316406 449.125 L 1510.953125 449.125 C 1520.449219 449.125 1528.480469 441.089844 1528.480469 431.597656 L 1526.289062 372.445312 L 1534.324219 372.445312 L 1537.246094 440.359375 C 1537.246094 449.125 1529.941406 457.15625 1520.449219 457.15625 L 1505.113281 457.15625 L 1505.113281 696.6875 L 1500 701.070312 L 1495.617188 696.6875 L 1495.617188 457.15625 Z M 1516.796875 852.238281 L 1519.71875 934.03125 L 1521.910156 1011.441406 L 1521.910156 1012.171875 L 1525.558594 1133.398438 C 1525.558594 1134.859375 1524.828125 1135.589844 1524.097656 1136.320312 C 1523.367188 1137.050781 1521.910156 1137.78125 1521.179688 1137.78125 L 1476.632812 1137.78125 C 1475.171875 1137.78125 1474.441406 1137.050781 1473.710938 1136.320312 C 1472.980469 1135.589844 1472.25 1134.128906 1472.25 1133.398438 L 1475.902344 1017.285156 C 1475.902344 1016.554688 1475.902344 1016.554688 1475.902344 1015.824219 L 1477.359375 965.433594 L 1477.359375 961.78125 L 1478.089844 932.570312 L 1478.820312 904.089844 L 1478.820312 900.4375 L 1480.28125 850.777344 C 1480.28125 850.777344 1482.472656 833.253906 1485.394531 812.804688 L 1498.539062 799.660156 L 1511.683594 813.535156 C 1514.605469 834.710938 1516.796875 852.238281 1516.796875 852.238281 Z M 1808.179688 1027.507812 L 1776.777344 1058.910156 C 1772.394531 1063.292969 1765.824219 1063.292969 1761.441406 1058.910156 L 1713.242188 1007.058594 L 1648.976562 938.414062 L 1640.945312 929.648438 L 1583.980469 869.035156 L 1579.601562 864.652344 L 1524.097656 787.972656 C 1524.097656 787.246094 1523.367188 787.246094 1523.367188 786.515625 L 1499.269531 763.144531 L 1475.171875 787.246094 C 1475.171875 787.246094 1474.441406 787.976562 1474.441406 788.703125 L 1418.9375 865.382812 L 1414.558594 869.765625 L 1349.5625 939.144531 L 1285.296875 1007.789062 L 1237.097656 1059.640625 C 1232.714844 1064.019531 1226.144531 1064.019531 1221.761719 1059.640625 L 1190.359375 1028.238281 C 1185.980469 1023.855469 1185.980469 1017.285156 1190.359375 1012.902344 L 1310.125 900.4375 L 1313.046875 898.246094 L 1380.234375 835.441406 L 1384.617188 831.0625 L 1461.292969 775.558594 C 1462.023438 775.558594 1462.023438 774.828125 1462.753906 774.828125 L 1486.855469 750.730469 L 1391.917969 655.792969 L 1257.546875 522.152344 L 1226.875 552.824219 L 1213.730469 539.679688 L 1257.546875 495.863281 L 1499.269531 737.585938 L 1600.046875 636.804688 L 1694.984375 541.871094 L 1687.683594 534.566406 C 1679.648438 526.535156 1679.648438 514.117188 1687.683594 506.085938 L 1724.925781 474.683594 C 1732.960938 467.378906 1744.644531 467.378906 1752.675781 475.414062 L 1773.125 495.863281 C 1780.429688 503.164062 1781.160156 515.578125 1773.855469 523.613281 L 1742.453125 560.855469 C 1734.421875 568.890625 1722.003906 568.890625 1713.972656 560.855469 L 1708.859375 555.746094 L 1513.144531 751.460938 L 1537.246094 775.558594 C 1537.246094 775.558594 1537.976562 776.289062 1538.707031 776.289062 L 1615.382812 831.792969 L 1619.765625 836.171875 L 1686.953125 899.707031 L 1689.144531 901.167969 L 1808.910156 1013.632812 C 1812.5625 1016.554688 1812.5625 1023.125 1808.179688 1027.507812 Z M 1808.179688 1027.507812 " fill-opacity="1" fill-rule="nonzero"/><path fill="#000000" d="M 1720.546875 541.140625 C 1724.195312 544.789062 1730.769531 544.789062 1734.421875 541.140625 L 1761.441406 512.65625 C 1765.09375 509.007812 1765.09375 498.78125 1761.441406 495.132812 L 1752.675781 486.367188 C 1749.027344 482.714844 1738.800781 482.714844 1735.152344 486.367188 L 1706.667969 513.386719 C 1703.019531 517.039062 1703.019531 523.613281 1706.667969 527.265625 Z M 1720.546875 541.140625 " fill-opacity="1" fill-rule="nonzero"/></svg>