<svg xmlns="http://www.w3.org/2000/svg" xmlns:xlink="http://www.w3.org/1999/xlink" width="205" zoomAndPan="magnify" viewBox="0 0 153.75 153.750002" height="205" preserveAspectRatio="xMidYMid meet" version="1.0"><defs><clipPath id="c890f25527"><path d="M 0 0 L 153.5 0 L 153.5 153.5 L 0 153.5 Z M 0 0 " clip-rule="nonzero"/></clipPath></defs><g clip-path="url(#c890f25527)"><path fill="#00497f" d="M 153.277344 67.855469 L 139.226562 64.570312 L 151.183594 56.496094 L 133.324219 56.273438 L 133.695312 58.367188 L 144.980469 58.292969 L 144.980469 58.367188 L 134.667969 65.390625 L 146.847656 68.304688 L 146.847656 68.378906 L 136.3125 72.339844 L 136.6875 74.433594 Z M 144.457031 46.109375 L 146.175781 45.214844 L 141.992188 37.214844 L 127.046875 44.988281 L 131.230469 52.984375 L 132.949219 52.089844 L 129.734375 45.960938 L 135.339844 43.046875 L 138.480469 49.023438 L 140.199219 48.128906 L 137.132812 42.148438 L 141.320312 39.980469 Z M 130.78125 35.347656 C 134.890625 31.535156 133.996094 26.605469 130.558594 22.792969 L 128.242188 20.253906 L 115.835938 31.613281 L 118.152344 34.152344 C 121.664062 38.039062 126.597656 39.234375 130.78125 35.347656 Z M 129.285156 33.855469 C 125.699219 37.140625 122.039062 35.496094 119.125 32.359375 L 118.601562 31.835938 L 128.167969 23.019531 L 128.6875 23.539062 C 131.605469 26.753906 132.949219 30.566406 129.285156 33.855469 Z M 112.847656 29.296875 L 115.011719 10.164062 L 99.09375 21.074219 L 101.039062 22.269531 L 104.847656 19.65625 L 111.5 23.617188 L 110.976562 28.25 Z M 112.621094 14.050781 L 111.648438 21.449219 L 106.492188 18.382812 Z M 91.847656 9.863281 L 101.039062 4.410156 L 98.347656 3.738281 L 89.679688 9.042969 L 91.472656 1.941406 L 89.453125 1.421875 L 85.34375 17.710938 L 87.363281 18.234375 L 89.082031 11.433594 L 90.128906 10.835938 L 94.386719 19.953125 L 97.152344 20.625 Z M 79.140625 17.339844 L 81.382812 17.261719 L 72.863281 0 L 65.390625 17.785156 L 67.632812 17.710938 L 69.425781 13.453125 L 77.125 13.226562 Z M 76.152344 11.285156 L 70.171875 11.433594 L 72.9375 4.558594 Z M 59.859375 11.359375 L 59.636719 10.761719 L 53.359375 13.078125 L 54.03125 14.871094 L 58.140625 13.378906 C 59.039062 15.992188 57.171875 19.058594 54.703125 19.953125 C 51.265625 21.222656 47.378906 19.132812 46.183594 15.769531 C 44.839844 12.257812 46.558594 8.371094 50.070312 7.023438 C 52.015625 6.277344 54.253906 6.652344 55.972656 7.773438 L 56.871094 5.980469 C 54.628906 4.632812 51.789062 4.410156 49.324219 5.304688 C 44.765625 7.023438 42.523438 12.03125 44.242188 16.589844 C 45.886719 20.925781 50.816406 23.464844 55.226562 21.820312 C 59.636719 20.101562 61.503906 15.695312 59.859375 11.359375 Z M 36.171875 23.765625 C 37.964844 22.046875 38.039062 19.503906 36.542969 17.5625 C 35.574219 16.292969 34.003906 15.46875 32.359375 15.695312 C 30.863281 15.917969 29.519531 16.816406 28.324219 17.785156 L 26.304688 19.28125 L 36.46875 32.65625 L 38.113281 31.386719 L 33.855469 25.707031 L 34.527344 25.183594 L 42.746094 27.875 L 44.765625 26.304688 Z M 33.332031 23.988281 L 32.808594 24.363281 L 29.144531 19.503906 L 29.59375 19.132812 C 31.238281 17.859375 33.480469 16.664062 35.050781 18.757812 C 36.617188 21 35.050781 22.71875 33.332031 23.988281 Z M 20.625 35.347656 L 16.964844 32.359375 L 21.375 26.976562 L 19.878906 25.78125 L 14.199219 32.808594 L 27.203125 43.417969 L 32.882812 36.394531 L 31.386719 35.199219 L 26.976562 40.578125 L 22.046875 36.542969 L 26.304688 31.3125 L 24.8125 30.117188 Z M 15.171875 46.707031 C 15.171875 45.4375 14.199219 44.242188 13.078125 43.71875 C 9.640625 42.074219 7.621094 44.464844 6.277344 47.304688 L 5.378906 49.175781 L 20.550781 56.421875 L 22.269531 52.910156 C 23.539062 50.21875 23.539062 47.082031 20.550781 45.585938 C 18.757812 44.691406 16.367188 45.0625 15.171875 46.707031 Z M 13.226562 49.996094 L 13.003906 50.445312 L 7.996094 48.054688 L 8.21875 47.53125 C 9.042969 45.734375 10.089844 44.464844 12.257812 45.511719 C 14.421875 46.558594 14.050781 48.203125 13.226562 49.996094 Z M 15.019531 49.996094 C 15.84375 48.277344 17.339844 46.335938 19.429688 47.378906 C 21.597656 48.425781 21.222656 50.519531 20.402344 52.238281 L 19.730469 53.65625 L 14.5 51.191406 Z M 11.136719 69.949219 L 0.523438 69.726562 L 0.449219 71.816406 L 10.386719 72.042969 C 13.152344 72.117188 15.617188 72.9375 15.617188 76.226562 C 15.542969 79.441406 13.003906 80.261719 10.238281 80.1875 L 0.300781 79.964844 L 0.222656 82.054688 L 10.835938 82.28125 C 14.574219 82.355469 17.414062 80.113281 17.488281 76.226562 C 17.636719 72.414062 14.871094 70.023438 11.136719 69.949219 Z M 3.214844 89.679688 L 1.34375 90.128906 L 3.660156 99.917969 L 5.53125 99.46875 L 4.632812 95.582031 L 19.132812 92.144531 L 18.683594 90.128906 L 4.183594 93.566406 Z M 32.957031 117.554688 L 21.671875 130.035156 L 23.242188 131.453125 L 28.773438 125.328125 L 33.105469 129.210938 L 34.375 127.792969 L 30.042969 123.90625 L 33.179688 120.394531 L 37.664062 124.429688 L 38.9375 123.007812 Z M 41.925781 125.625 L 33.628906 140.273438 L 35.421875 141.320312 L 38.9375 135.117188 L 39.683594 135.566406 L 40.503906 144.160156 L 42.746094 145.429688 L 41.777344 136.460938 C 44.015625 137.433594 46.410156 136.460938 47.605469 134.367188 C 48.425781 132.949219 48.5 131.230469 47.679688 129.808594 C 46.855469 128.464844 45.511719 127.644531 44.242188 126.96875 Z M 39.832031 133.546875 L 42.820312 128.242188 L 43.269531 128.539062 C 45.0625 129.585938 47.082031 131.15625 45.734375 133.398438 C 44.390625 135.714844 42.222656 134.890625 40.355469 133.847656 Z M 53.734375 132.125 L 48.800781 148.195312 L 57.46875 150.808594 L 57.992188 148.941406 L 51.339844 146.925781 L 53.210938 140.871094 L 59.636719 142.8125 L 60.160156 140.945312 L 53.734375 139.003906 L 55.078125 134.519531 L 61.730469 136.535156 L 62.253906 134.667969 Z M 66.886719 135.640625 L 64.867188 152.304688 L 66.960938 152.527344 L 68.976562 135.863281 Z M 76.226562 136.609375 L 74.210938 136.6875 L 74.808594 153.5 L 78.691406 153.351562 C 81.683594 153.277344 84.449219 151.78125 84.371094 148.417969 C 84.296875 146.476562 82.878906 144.53125 80.859375 144.308594 L 80.859375 144.234375 C 81.980469 143.636719 82.578125 142.214844 82.578125 140.945312 C 82.429688 137.207031 79.441406 136.460938 76.226562 136.609375 Z M 76.601562 145.652344 L 77.871094 145.578125 C 79.738281 145.503906 82.207031 145.878906 82.28125 148.269531 C 82.355469 150.660156 80.335938 151.332031 78.394531 151.40625 L 76.824219 151.484375 Z M 76.375 138.480469 L 76.972656 138.480469 C 78.917969 138.40625 80.5625 138.777344 80.636719 141.09375 C 80.710938 143.484375 79.140625 143.933594 77.125 144.007812 L 76.601562 144.007812 Z M 95.957031 133.246094 L 87.289062 135.789062 L 91.996094 151.929688 L 100.664062 149.390625 L 100.140625 147.523438 L 93.492188 149.464844 L 91.695312 143.335938 L 98.199219 141.46875 L 97.675781 139.601562 L 91.171875 141.46875 L 89.828125 136.984375 L 96.480469 135.042969 Z M 99.691406 132.050781 L 107.765625 146.773438 L 109.632812 145.726562 L 106.195312 139.527344 L 106.941406 139.078125 L 114.714844 142.886719 L 116.957031 141.691406 L 108.808594 137.804688 C 110.828125 136.386719 111.277344 133.847656 110.082031 131.753906 C 109.332031 130.332031 107.839844 129.363281 106.195312 129.285156 C 104.625 129.285156 103.207031 130.035156 101.933594 130.707031 Z M 102.457031 132.726562 L 102.980469 132.425781 C 104.773438 131.453125 107.167969 130.558594 108.4375 132.875 C 109.707031 135.191406 107.914062 136.6875 106.046875 137.730469 L 105.449219 138.03125 Z M 116.132812 132.800781 C 119.273438 136.238281 124.804688 136.6875 128.316406 133.472656 C 131.753906 130.257812 131.753906 125.476562 128.6875 122.113281 L 128.242188 121.589844 L 123.308594 126.074219 L 124.578125 127.492188 L 127.792969 124.578125 C 129.585938 126.671875 129.0625 130.257812 127.121094 131.976562 C 124.429688 134.445312 120.019531 133.921875 117.628906 131.304688 C 115.089844 128.539062 115.164062 124.28125 118.003906 121.738281 C 119.496094 120.320312 121.738281 119.796875 123.757812 120.167969 L 123.90625 118.152344 C 121.289062 117.703125 118.601562 118.601562 116.65625 120.394531 C 113.070312 123.683594 112.921875 129.210938 116.132812 132.800781 Z M 135.566406 86.464844 L 133.324219 95.210938 L 135.191406 95.65625 L 136.910156 88.929688 L 143.039062 90.5 L 141.394531 97.003906 L 143.261719 97.449219 L 144.90625 90.949219 L 149.464844 92.070312 L 147.746094 98.796875 L 149.613281 99.246094 L 151.855469 90.5 Z M 136.011719 80.785156 L 152.753906 81.980469 L 152.902344 79.890625 L 136.164062 78.691406 Z M 15.019531 112.097656 C 15.019531 113.21875 15.992188 114.191406 17.113281 114.191406 C 18.234375 114.191406 19.207031 113.21875 19.207031 112.097656 C 19.207031 110.976562 18.234375 110.007812 17.113281 110.007812 C 15.992188 110.007812 15.019531 110.976562 15.019531 112.097656 Z M 133.921875 112.097656 C 133.921875 113.21875 134.890625 114.191406 136.011719 114.191406 C 137.132812 114.191406 138.105469 113.21875 138.105469 112.097656 C 138.105469 110.976562 137.132812 110.007812 136.011719 110.007812 C 134.890625 110.007812 133.921875 110.976562 133.921875 112.097656 Z M 133.921875 112.097656 " fill-opacity="1" fill-rule="nonzero"/></g><path fill="#00497f" d="M 81.757812 76.675781 L 98.648438 59.1875 L 102.832031 63.375 L 120.09375 71.96875 L 111.5 54.703125 L 107.167969 50.371094 L 108.363281 49.097656 L 104.328125 45.0625 L 103.054688 46.257812 L 92.96875 36.246094 L 84.296875 44.914062 L 94.238281 54.855469 L 78.394531 70.171875 L 78.394531 48.128906 L 78.769531 48.128906 C 80.410156 48.128906 81.683594 46.78125 81.683594 45.214844 L 81.382812 36.992188 L 78.09375 36.992188 L 78.394531 44.316406 C 78.394531 44.617188 78.171875 44.839844 77.871094 44.839844 L 75.554688 44.839844 C 75.253906 44.839844 75.03125 44.617188 75.03125 44.316406 L 75.332031 36.992188 L 72.042969 36.992188 L 71.742188 45.214844 C 71.742188 46.855469 73.089844 48.128906 74.65625 48.128906 L 75.03125 48.128906 L 75.03125 70.171875 L 57.695312 53.433594 C 61.355469 50.144531 65.539062 47.378906 70.023438 45.214844 L 61.730469 35.648438 C 50.667969 41.699219 41.550781 50.816406 35.496094 61.878906 L 44.988281 70.171875 C 47.15625 65.613281 49.921875 61.503906 53.210938 57.769531 L 71.445312 76.675781 L 43.867188 103.28125 C 43.195312 103.953125 43.121094 105 43.792969 105.671875 C 44.988281 107.015625 46.257812 108.289062 47.605469 109.484375 C 48.277344 110.082031 49.398438 110.082031 49.996094 109.410156 L 73.761719 84.746094 L 73.460938 86.988281 L 73.460938 87.660156 L 73.3125 91.996094 L 73.3125 92.890625 L 73.238281 95.507812 L 73.164062 98.199219 L 73.089844 98.421875 L 73.089844 99.09375 L 72.566406 115.910156 C 72.566406 115.910156 72.566406 115.910156 72.566406 115.984375 L 72.566406 116.058594 C 72.566406 116.507812 72.714844 116.882812 73.011719 117.179688 C 73.3125 117.480469 73.6875 117.628906 74.132812 117.628906 L 78.917969 117.628906 C 79.367188 117.628906 79.738281 117.480469 80.039062 117.179688 C 80.335938 116.882812 80.488281 116.507812 80.488281 116.058594 L 79.964844 98.945312 L 79.964844 98.273438 L 79.738281 92.445312 L 79.738281 91.996094 L 79.589844 87.585938 L 79.589844 86.839844 L 79.515625 86.390625 L 79.292969 84.671875 L 103.054688 109.257812 C 103.730469 109.929688 104.773438 110.007812 105.449219 109.332031 C 106.792969 108.136719 108.0625 106.867188 109.257812 105.523438 C 109.855469 104.851562 109.855469 103.730469 109.183594 103.128906 Z M 74.582031 46.78125 C 73.6875 46.78125 72.863281 46.035156 72.863281 45.136719 L 73.164062 38.113281 L 73.984375 38.113281 L 73.761719 44.167969 C 73.761719 45.136719 74.582031 45.960938 75.554688 45.960938 L 77.871094 45.960938 C 78.84375 45.960938 79.664062 45.136719 79.664062 44.167969 L 79.441406 38.113281 L 80.261719 38.113281 L 80.5625 45.0625 C 80.5625 45.960938 79.8125 46.78125 78.84375 46.78125 L 77.273438 46.78125 L 77.273438 71.292969 L 76.75 71.742188 L 76.300781 71.292969 L 76.300781 46.78125 Z M 78.46875 87.210938 L 78.769531 95.582031 L 78.992188 103.503906 L 78.992188 103.578125 L 79.367188 115.984375 C 79.367188 116.132812 79.292969 116.207031 79.214844 116.285156 C 79.140625 116.359375 78.992188 116.433594 78.917969 116.433594 L 74.359375 116.433594 C 74.210938 116.433594 74.132812 116.359375 74.058594 116.285156 C 73.984375 116.207031 73.910156 116.058594 73.910156 115.984375 L 74.285156 104.101562 C 74.285156 104.027344 74.285156 104.027344 74.285156 103.953125 L 74.433594 98.796875 L 74.433594 98.421875 L 74.507812 95.433594 L 74.582031 92.519531 L 74.582031 92.144531 L 74.730469 87.0625 C 74.730469 87.0625 74.957031 85.269531 75.253906 83.175781 L 76.601562 81.832031 L 77.945312 83.253906 C 78.246094 85.417969 78.46875 87.210938 78.46875 87.210938 Z M 108.289062 105.148438 L 105.074219 108.363281 C 104.625 108.808594 103.953125 108.808594 103.503906 108.363281 L 98.570312 103.054688 L 91.996094 96.03125 L 91.171875 95.132812 L 85.34375 88.929688 L 84.894531 88.484375 L 79.214844 80.636719 C 79.214844 80.5625 79.140625 80.5625 79.140625 80.488281 L 76.675781 78.09375 L 74.210938 80.5625 C 74.210938 80.5625 74.132812 80.636719 74.132812 80.710938 L 68.453125 88.558594 L 68.007812 89.007812 L 61.355469 96.105469 L 54.777344 103.128906 L 49.847656 108.4375 C 49.398438 108.886719 48.726562 108.886719 48.277344 108.4375 L 45.0625 105.222656 C 44.617188 104.773438 44.617188 104.101562 45.0625 103.652344 L 57.320312 92.144531 L 57.617188 91.921875 L 64.492188 85.492188 L 64.941406 85.046875 L 72.789062 79.367188 C 72.863281 79.367188 72.863281 79.292969 72.9375 79.292969 L 75.40625 76.824219 L 65.691406 67.109375 L 51.9375 53.433594 L 48.800781 56.574219 L 47.457031 55.226562 L 51.9375 50.742188 L 76.675781 75.480469 L 96.703125 55.453125 L 95.957031 54.703125 C 95.132812 53.882812 95.132812 52.613281 95.957031 51.789062 L 99.769531 48.574219 C 100.589844 47.828125 101.785156 47.828125 102.609375 48.652344 L 104.699219 50.742188 C 105.449219 51.492188 105.523438 52.761719 104.773438 53.582031 L 101.5625 57.394531 C 100.738281 58.214844 99.46875 58.214844 98.648438 57.394531 L 98.125 56.871094 L 88.632812 66.363281 L 78.09375 76.898438 L 80.5625 79.367188 C 80.5625 79.367188 80.636719 79.441406 80.710938 79.441406 L 88.558594 85.121094 L 89.007812 85.570312 L 95.882812 92.070312 L 96.105469 92.21875 L 108.363281 103.730469 C 108.734375 104.027344 108.734375 104.699219 108.289062 105.148438 Z M 108.289062 105.148438 " fill-opacity="1" fill-rule="nonzero"/><path fill="#00497f" d="M 99.320312 55.375 C 99.691406 55.75 100.367188 55.75 100.738281 55.375 L 103.503906 52.460938 C 103.878906 52.089844 103.878906 51.042969 103.503906 50.667969 L 102.609375 49.773438 C 102.234375 49.398438 101.1875 49.398438 100.8125 49.773438 L 97.898438 52.535156 C 97.527344 52.910156 97.527344 53.582031 97.898438 53.957031 Z M 99.320312 55.375 " fill-opacity="1" fill-rule="nonzero"/></svg>